<?xml version="1.0" standalone="no"?>
<!DOCTYPE svg PUBLIC "-//W3C//DTD SVG 20010904//EN"
 "http://www.w3.org/TR/2001/REC-SVG-20010904/DTD/svg10.dtd">
<svg version="1.0" xmlns="http://www.w3.org/2000/svg"
 width="500.000000pt" height="500.000000pt" viewBox="0 0 500.000000 500.000000"
 preserveAspectRatio="xMidYMid meet">
<metadata>
Created by potrace 1.14, written by Peter Selinger 2001-2017
</metadata>
<g transform="translate(0.000000,500.000000) scale(0.100000,-0.100000)"
fill="#000000" stroke="none">
<path d="M2053 4450 c-487 -110 -952 -433 -1220 -848 -161 -249 -259 -500
-310 -797 -23 -139 -23 -471 0 -610 74 -431 251 -783 547 -1089 258 -266 566
-445 932 -540 199 -52 271 -61 498 -61 227 0 299 9 498 61 282 73 541 203 763
381 147 120 355 356 441 505 l28 46 -162 306 c-106 201 -167 306 -177 306 -32
1 -1586 -233 -1593 -239 -3 -3 -41 -188 -83 -411 -43 -223 -79 -407 -81 -409
-5 -6 -648 -101 -652 -96 -2 2 152 788 342 1747 190 960 346 1750 346 1756 0
15 -18 14 -117 -8z"/>
<path d="M2756 4269 c-28 -118 -356 -1842 -352 -1846 4 -5 1237 174 1243 181
1 1 -198 381 -442 845 -349 664 -445 839 -449 820z"/>
<path d="M3541 4124 c524 -984 945 -1761 953 -1757 13 9 0 331 -19 443 -68
411 -251 780 -530 1069 -131 135 -284 259 -419 336 l-48 28 63 -119z"/>
</g>
</svg>
